<svg width="1171" height="747" viewBox="0 0 1171 747" fill="none" xmlns="http://www.w3.org/2000/svg">
<path d="M506.432 286.302C506.091 286.302 505.748 286.194 505.455 285.968C505.188 285.758 498.859 280.759 494.026 270.562C489.594 261.211 485.658 245.534 492.066 223.921C496.412 209.259 500.768 198.836 504.609 189.634C511.583 172.94 516.623 160.878 517.03 135.306C517.043 134.431 517.689 133.68 518.643 133.741C519.525 133.757 520.225 134.476 520.212 135.357C519.795 161.54 514.389 174.48 507.545 190.863C503.734 199.988 499.416 210.328 495.117 224.828C483.431 264.23 507.17 283.27 507.412 283.454C508.102 283.995 508.226 284.994 507.689 285.688C507.374 286.092 506.906 286.302 506.432 286.302Z" fill="#000C3E"/>
<path d="M636.799 35.0354C636.561 52.3695 622.316 66.2323 604.979 65.9937C587.645 65.755 573.785 51.5104 574.021 34.1732C574.259 16.8391 588.507 2.97943 605.841 3.21488C623.175 3.45351 637.038 17.7013 636.799 35.0354Z" fill="#000C3E"/>
<path d="M503.394 275.089C503.394 275.089 513.051 293.858 550.808 299.645C588.563 305.43 617.749 291.125 647.024 300.963C676.299 310.804 717.907 296.091 725.928 283.699C733.952 271.306 729.001 136.282 705.577 114.179C682.153 92.0755 561.792 76.0205 536.433 103.138C511.075 130.259 486.55 260.268 503.394 275.089Z" fill="#000C3E"/>
<path d="M717.938 163.38C717.155 220.508 670.209 266.185 613.078 265.402C555.95 264.62 510.273 217.67 511.055 160.542C511.841 103.414 558.788 57.7371 615.916 58.5198C673.044 59.3057 718.721 106.252 717.938 163.38Z" fill="#000C3E"/>
<path d="M529.966 160.087C529.966 160.087 537.198 285.52 622.201 288.925C707.201 292.329 702.915 115.46 671.801 99.3632C640.687 83.27 512.587 89.4712 529.966 160.087Z" fill="#FFCEB0"/>
<path d="M617.744 184.891C617.744 184.891 634.871 223.145 630.761 225.805C626.65 228.462 614.432 228.296 611.075 225.534C607.719 222.773 611.012 180.726 617.744 184.891Z" fill="#F5A473"/>
<path d="M592.633 198.426C592.522 202.83 588.863 206.31 584.46 206.199C580.056 206.091 576.575 202.432 576.687 198.028C576.795 193.625 580.454 190.144 584.86 190.252C589.264 190.364 592.745 194.023 592.633 198.426Z" fill="#41294A"/>
<path d="M661.01 193.045C660.899 197.449 657.24 200.929 652.836 200.818C648.433 200.71 644.952 197.051 645.064 192.647C645.172 188.244 648.831 184.763 653.237 184.871C657.641 184.982 661.122 188.641 661.01 193.045Z" fill="#41294A"/>
<path d="M595.202 91.5536C595.202 91.5536 565.118 106.995 559.986 134.758C554.851 162.522 559.525 233.192 527.205 230.713C527.205 230.713 461.451 92.1963 595.202 91.5536Z" fill="#41294A"/>
<path d="M611.256 91.7737C608.542 93.8163 642.679 92.9223 662.759 116.12C682.842 139.318 688.881 198.343 691.926 199.367C694.971 200.395 705.257 125.735 683.329 103.899C661.4 82.0662 626.7 80.1508 611.256 91.7737Z" fill="#41294A"/>
<path d="M684.725 204.584C684.725 204.584 692.103 172.964 706.542 183.813C720.98 194.663 708.938 227.807 694.998 231.119C681.062 234.432 677.372 220.966 684.725 204.584Z" fill="#FFCEB0"/>
<path d="M550.746 202.746C550.746 202.746 544.236 170.935 529.505 181.384C514.777 191.833 525.906 225.299 539.747 228.993C553.591 232.683 557.647 219.326 550.746 202.746Z" fill="#FFCEB0"/>
<path d="M649.183 164.911C649.183 164.911 664.195 156.991 673.444 168.369C681.58 178.372 663.011 170.265 656.177 171.56C649.339 172.859 640.31 172.292 649.183 164.911Z" fill="#41294A"/>
<path d="M589.527 167.793C589.527 167.793 574.13 160.65 565.473 172.483C557.859 182.89 575.989 173.845 582.883 174.793C589.775 175.738 598.767 174.71 589.527 167.793Z" fill="#41294A"/>
<path d="M643.732 249.18C643.732 249.18 633.939 234.382 623.344 235.314C612.745 236.249 604.622 249.889 603.197 250.462C603.197 250.462 619.736 258.229 643.732 249.18Z" fill="#41294A"/>
<path d="M584.172 180.667C570.914 180.667 559.979 191.46 559.794 204.721C559.708 211.231 562.158 217.391 566.702 222.062C571.245 226.729 577.332 229.348 583.845 229.437L584.185 229.44C597.443 229.44 608.379 218.651 608.56 205.389C608.745 191.947 597.959 180.858 584.513 180.671L584.172 180.667ZM584.185 232.622L583.8 232.619C576.438 232.52 569.556 229.555 564.42 224.279C559.285 219.001 556.514 212.039 556.612 204.677C556.819 189.684 569.183 177.486 584.172 177.486L584.557 177.489C599.757 177.699 611.949 190.235 611.742 205.431C611.539 220.423 599.174 232.622 584.185 232.622Z" fill="#FFFCF6"/>
<path d="M653.038 175.156C639.777 175.156 628.841 185.948 628.66 199.209C628.475 212.649 639.264 223.741 652.707 223.925L653.048 223.928C666.309 223.928 677.245 213.139 677.426 199.878C677.515 193.365 675.062 187.205 670.522 182.534C665.978 177.87 659.891 175.248 653.378 175.159L653.038 175.156ZM653.048 227.11L652.666 227.107C637.463 226.897 625.271 214.361 625.478 199.165C625.685 184.173 638.046 171.974 653.038 171.974L653.423 171.977C660.786 172.076 667.668 175.041 672.8 180.316C677.938 185.595 680.71 192.556 680.608 199.919C680.401 214.911 668.037 227.11 653.048 227.11Z" fill="#FFFCF6"/>
<path d="M558.887 200.727C558.705 200.727 558.517 200.695 558.339 200.631L548.135 196.883C547.311 196.578 546.888 195.665 547.191 194.838C547.493 194.017 548.412 193.6 549.233 193.896L559.434 197.641C560.261 197.946 560.681 198.859 560.379 199.687C560.143 200.329 559.536 200.727 558.887 200.727Z" fill="#FFFCF6"/>
<path d="M677.873 193.496C677.196 193.496 676.566 193.061 676.356 192.38C676.092 191.543 676.559 190.649 677.399 190.385L691.345 186.032C692.178 185.765 693.076 186.239 693.337 187.076C693.601 187.916 693.133 188.807 692.293 189.071L678.347 193.426C678.192 193.474 678.029 193.496 677.873 193.496Z" fill="#FFFCF6"/>
<path d="M610.759 120.942C610.759 120.942 610.788 152.673 629.69 158.404C648.59 164.137 697.21 161.608 696.717 153.854C692.265 83.846 659.357 87.3682 631.873 78.4084C583.673 62.7002 544.251 141.4 550.153 160.001C556.055 178.598 596.737 161.232 605.445 158.617C614.151 155.998 609.327 134.436 610.759 120.942Z" fill="#000C3E"/>
<g opacity="0.210007">
<g opacity="0.210007">
<path opacity="0.210007" d="M562.015 228.112C562.015 228.112 604.895 203.37 623.715 206.829C642.535 210.291 675.565 210.832 677.06 217.583C678.559 224.332 635.185 221.29 621.844 222.588C608.503 223.886 557.287 239.244 562.015 228.112Z" fill="#DB5C5D"/>
</g>
</g>
<path d="M586.013 211.556C585.386 211.556 584.791 211.183 584.539 210.563C584.209 209.752 584.6 208.823 585.414 208.492C589.726 206.735 590.524 205.351 590.531 205.339C590.814 204.505 591.686 204.117 592.526 204.413C593.356 204.696 593.773 205.663 593.49 206.497C593.289 207.082 592.204 209.163 586.611 211.438C586.413 211.518 586.213 211.556 586.013 211.556Z" fill="#DB5C5D"/>
<path d="M651.524 208.188C650.242 208.188 648.078 207.8 644.68 206.142C643.888 205.76 643.56 204.809 643.945 204.016C644.327 203.227 645.284 202.903 646.07 203.285C650.261 205.324 651.82 204.984 651.839 204.984C652.65 204.643 653.516 205.041 653.859 205.849C654.203 206.657 653.764 207.612 652.952 207.959C652.742 208.048 652.291 208.188 651.524 208.188Z" fill="#DB5C5D"/>
<path d="M610.128 205.541C609.323 205.541 608.629 204.933 608.546 204.112C608.457 203.237 609.094 202.454 609.969 202.368L627.042 200.625C627.898 200.517 628.696 201.169 628.785 202.044C628.875 202.919 628.238 203.702 627.363 203.788L610.29 205.531C610.236 205.537 610.182 205.541 610.128 205.541Z" fill="#FFFCF6"/>
<path d="M586.487 65.5654C586.255 65.5654 586.016 65.5145 585.794 65.4032C576.767 61.0156 571.307 54.7571 569.557 46.7996C565.676 29.1314 581.46 9.58283 582.135 8.75876C582.695 8.07787 583.694 7.97924 584.371 8.53604C585.052 9.09285 585.154 10.0919 584.597 10.7728C584.441 10.9637 569.112 29.9682 572.666 46.125C574.196 53.0803 579.08 58.6038 587.184 62.546C587.973 62.9278 588.304 63.8823 587.919 64.6714C587.645 65.2345 587.079 65.5654 586.487 65.5654Z" fill="#000C3E"/>
<path d="M622.817 70.2939C622.375 70.2939 621.936 70.1094 621.621 69.7531C621.041 69.0912 621.105 68.089 621.767 67.5067C621.951 67.3445 640.196 51.1208 639.343 34.5981C638.977 27.4869 635.067 21.2348 627.72 16.0136C627.004 15.5077 626.835 14.515 627.345 13.7959C627.854 13.0832 628.846 12.9146 629.562 13.4236C637.742 19.2335 642.105 26.3065 642.521 34.4453C643.444 52.5081 624.665 69.1962 623.864 69.8994C623.561 70.1635 623.189 70.2939 622.817 70.2939Z" fill="#000C3E"/>
<path d="M717.447 279.181C716.986 279.181 716.528 278.983 716.213 278.592C715.659 277.914 715.761 276.912 716.442 276.355C716.652 276.184 737.578 258.706 731.517 231.057C729.181 220.398 725.087 208.67 720.75 196.255C713.231 174.724 705.455 152.459 704.822 130.874C704.797 129.992 705.49 129.264 706.368 129.235C707.192 129.264 707.978 129.9 708.004 130.778C708.624 151.873 716.315 173.904 723.753 195.205C728.122 207.716 732.249 219.53 734.625 230.373C741.113 259.979 718.679 278.64 718.449 278.824C718.154 279.063 717.8 279.181 717.447 279.181Z" fill="#000C3E"/>
<path d="M723.098 165.551C723.047 165.551 722.993 165.548 722.939 165.545C722.067 165.459 721.428 164.679 721.513 163.804C724.262 135.967 718.405 113.374 704.109 96.6412C681.09 69.7078 643.691 67.2356 643.319 67.2134C642.441 67.1625 641.77 66.4116 641.824 65.5302C641.871 64.6552 642.626 63.9616 643.501 64.038C643.892 64.0603 682.639 66.6184 706.527 94.5731C721.408 111.99 727.517 135.388 724.679 164.116C724.6 164.94 723.906 165.551 723.098 165.551Z" fill="#000C3E"/>
<path d="M609.154 252.321C609.154 252.321 625.008 241.197 639.167 250.733C639.167 250.733 622.635 256.928 609.154 252.321Z" fill="#DB5C5D"/>
<path d="M619.644 263.741C618.079 263.741 616.733 263.725 615.903 263.712C615.025 263.699 614.325 262.977 614.337 262.096C614.35 261.217 614.951 260.505 615.954 260.53C621.961 260.61 629.139 260.463 630.256 260.04C631.073 259.728 631.996 260.136 632.311 260.953C632.626 261.774 632.225 262.687 631.407 263.006C629.816 263.623 623.911 263.741 619.644 263.741Z" fill="#DB5C5D"/>
<path d="M542.48 220.203C542.337 220.203 542.194 220.184 542.051 220.143C541.204 219.907 540.711 219.032 540.946 218.183C545.299 202.583 533.743 192.538 533.625 192.436C532.957 191.87 532.874 190.865 533.444 190.193C534.01 189.525 535.016 189.442 535.687 190.015C536.228 190.473 548.907 201.498 544.01 219.042C543.813 219.742 543.177 220.203 542.48 220.203Z" fill="#DB5C5D"/>
<path d="M690.92 224.003C690.885 224.003 690.853 224.003 690.815 224C689.94 223.943 689.275 223.185 689.329 222.31C690.519 203.847 699.367 193.977 699.746 193.567C700.338 192.917 701.343 192.873 701.989 193.465C702.638 194.057 702.683 195.062 702.094 195.711C702.008 195.806 693.618 205.234 692.508 222.514C692.45 223.357 691.75 224.003 690.92 224.003Z" fill="#DB5C5D"/>
<path d="M658.972 275.941C658.972 275.941 664.031 332.534 657.318 341.485C650.604 350.438 608.084 343.721 596.893 341.485C585.703 339.248 585.681 245.648 587.94 251.97C606.623 304.185 657.684 257.977 658.972 275.941Z" fill="#FFCEB0"/>
<path d="M591.986 281.539C591.986 281.539 622.152 296.038 656.445 278.487C656.445 278.487 659.111 299.57 656.445 304.431C653.782 309.293 599.46 312.767 588.766 288.806C588.766 288.806 588.9 280.498 591.986 281.539Z" fill="#F5A473"/>
<path d="M427.249 724.876H817.622C817.622 724.876 837.562 385.474 788.662 348.566C739.759 311.655 524.486 330.093 473.804 361.621C423.122 393.149 427.249 724.876 427.249 724.876Z" fill="#FB4C47"/>
<path d="M622.153 334.778C622.153 334.778 607.106 465.241 613.674 483.399C620.237 501.558 611.828 582.065 609.155 592.53C606.48 602.994 525.374 607.439 504.445 599.068C483.515 590.697 509.777 365.045 521.492 323.298C533.211 281.547 620.864 306.145 622.153 334.778Z" fill="#05BA6E"/>
<path d="M383.969 174.932C383.969 174.932 416.598 237.425 439.465 238.004C462.335 238.583 539.454 144.668 567.889 143.7C596.328 142.736 620.747 145.495 620.859 138.718C620.97 131.937 581.307 124.537 581.307 124.537C581.307 124.537 638.667 128.189 626.802 121.915C614.941 115.641 586.515 109.999 586.515 109.999C586.515 109.999 627.741 111.663 628.04 107.254C628.339 102.844 585.118 96.3498 585.118 96.3498C585.118 96.3498 637.712 94.6698 628.094 87.4345C618.472 80.1993 600.365 83.3396 551.389 90.8199C502.409 98.3002 391.602 163.688 383.969 174.932Z" fill="#FFCEB0"/>
<path d="M441.214 171.938C441.214 171.938 493.41 203.03 470.683 238.265C446.483 275.784 447.838 264.638 443.654 279.818C439.467 294.998 508.441 324.563 511.578 337.557C514.715 350.548 482.201 510.332 451.745 503.774C425.235 498.069 277.915 414.466 256.743 330.92C240.332 266.15 374.102 107.722 441.214 171.938Z" fill="#FB4C47"/>
<path d="M577.845 536.398C577.845 536.398 520.011 663.801 541.274 680.862C562.538 697.919 579.672 686.805 598.476 697.878C617.283 708.95 635.323 703.414 650.43 693.78C665.537 684.142 626.22 557.391 609.958 545.323C593.697 533.252 580.776 529.777 577.845 536.398Z" fill="white"/>
<path d="M770.001 339.5C770.001 339.5 801.099 343.296 825.51 388C843.824 421.541 879.304 617.529 825.51 645.454C771.716 673.377 721.261 658.771 701.736 639.953C682.209 621.135 716.95 524.154 740.108 516.915C763.268 509.679 770.001 339.5 770.001 339.5Z" fill="#FB4C47"/>
<path d="M780.071 336.496C780.071 336.496 781.525 327.434 736.742 308.055C701.005 292.588 670.393 318.691 615.88 321.501C561.368 324.313 566.287 302.706 527.727 312.748C468.223 328.239 515.599 367.244 534.772 371.622C553.945 376 618.181 483.985 780.071 336.496Z" fill="#05BA6E"/>
<path d="M623.78 227.6C623.78 227.6 623.614 231.291 625.733 231.625C627.852 231.959 631.769 230.776 630.76 225.803C630.76 225.803 625.447 227.511 623.78 227.6Z" fill="white"/>
<path d="M844.514 533.318C844.365 533.318 844.212 533.309 844.059 533.287C842.589 533.077 841.501 531.893 841.345 530.483C838.695 527.419 820.899 521.002 809.028 516.719C785.509 508.234 774.962 504.037 772.693 499.446C770.768 495.554 771.63 489.942 772.722 482.837C774.449 471.593 776.603 457.593 769.463 444.109C757.134 420.822 758.308 386.281 758.366 384.824C758.436 383.067 759.953 381.661 761.665 381.766C763.421 381.833 764.79 383.312 764.726 385.065C764.71 385.409 763.565 419.371 775.089 441.131C783.212 456.479 780.784 472.27 779.012 483.801C778.162 489.321 777.364 494.536 778.398 496.627C780.326 499.601 798.898 506.302 811.186 510.734C838.879 520.725 848.495 524.744 847.658 530.588C847.432 532.176 846.07 533.318 844.514 533.318Z" fill="#B31B1F"/>
<path d="M761.5 507.159C761.223 507.159 760.943 507.124 760.66 507.047C750.148 504.18 733.816 501.196 733.654 501.164C731.923 500.852 730.777 499.195 731.092 497.467C731.407 495.736 733.059 494.572 734.793 494.906C735.47 495.027 751.554 497.967 762.334 500.906C764.03 501.371 765.029 503.118 764.567 504.814C764.182 506.23 762.9 507.159 761.5 507.159Z" fill="#B31B1F"/>
<path d="M818.653 664.54C818.603 664.54 818.555 664.54 818.507 664.536C759.613 661.867 700.936 636.779 697.763 612.916C696.768 605.417 696.048 601.665 695.603 599.81C694.413 599.219 693.691 597.952 693.904 596.568C694.308 593.947 696.083 593.017 697.493 593.017H697.528C700.732 593.052 701.795 594.93 704.073 612.079C706.535 630.603 759.957 655.513 818.793 658.179C820.55 658.259 821.908 659.745 821.829 661.501C821.752 663.21 820.343 664.54 818.653 664.54Z" fill="#B31B1F"/>
<path d="M713.077 608.226C712.845 608.226 712.609 608.2 712.371 608.149C710.659 607.761 709.584 606.056 709.972 604.341C710.109 603.727 724.025 542.383 737.032 498.256C737.529 496.569 739.31 495.602 740.984 496.105C742.67 496.601 743.634 498.37 743.135 500.056C730.185 543.987 716.316 605.133 716.179 605.747C715.842 607.224 714.531 608.226 713.077 608.226Z" fill="#B31B1F"/>
<path d="M437 474.994C436.845 474.994 436.682 474.982 436.523 474.959C434.786 474.699 433.59 473.076 433.851 471.342C434.178 469.146 442.034 417.3 452.814 393.039C463.294 369.463 468.659 345.558 468.713 345.32C469.088 343.605 470.784 342.532 472.509 342.902C474.224 343.283 475.305 344.986 474.924 346.701C474.704 347.7 469.365 371.467 458.63 395.626C448.2 419.098 440.22 471.755 440.141 472.284C439.905 473.865 438.547 474.994 437 474.994Z" fill="#B31B1F"/>
<path d="M388.497 293.977C380.028 293.977 370.536 293.462 360.088 292.132C358.344 291.909 357.11 290.318 357.332 288.575C357.552 286.831 359.184 285.619 360.889 285.819C392.707 289.873 415.31 286.141 426.961 283.598C421.158 281.743 413.028 279.936 404.915 280.378C386.658 281.237 359.944 264.928 358.815 264.228C357.32 263.305 356.858 261.345 357.781 259.85C358.704 258.354 360.667 257.887 362.159 258.816C362.42 258.975 388.351 274.817 404.587 274.021C420.054 273.207 438.371 280.095 440.035 283.051C440.63 284.104 440.582 285.472 439.905 286.475C439.275 287.4 437.97 287.957 436.825 287.887C436.322 287.945 434.833 288.301 433.385 288.645C426.427 290.312 411.091 293.974 388.497 293.977Z" fill="#B31B1F"/>
<path d="M466.708 225.594C465.525 225.594 464.389 224.932 463.842 223.799C463.762 223.637 455.817 207.499 442.289 201.104C426.93 193.84 409.561 168.523 408.829 167.451C407.84 165.997 408.215 164.015 409.666 163.028C411.123 162.042 413.099 162.421 414.086 163.865C414.257 164.113 431.213 188.823 445.012 195.348C460.603 202.727 469.212 220.287 469.572 221.028C470.335 222.613 469.671 224.509 468.089 225.273C467.644 225.492 467.173 225.594 466.708 225.594Z" fill="#B31B1F"/>
<path d="M614.497 410.501C614.379 410.501 614.259 410.488 614.141 410.46C613.285 410.265 612.747 409.41 612.944 408.557C613.021 408.22 620.609 375.047 622.83 358.196C626.289 331.925 614.523 322.761 614.405 322.672C613.702 322.144 613.555 321.151 614.077 320.448C614.599 319.742 615.585 319.592 616.292 320.111C616.842 320.515 629.709 330.318 625.983 358.61C623.746 375.613 616.123 408.932 616.047 409.263C615.878 410.005 615.223 410.501 614.497 410.501Z" fill="#08824F"/>
<path d="M520.663 362.657L517.503 362.291C517.503 362.291 519.972 340.811 521.261 330.251C522.562 319.599 525.601 312.325 525.731 312.02C526.072 311.205 527.007 310.836 527.815 311.17C528.623 311.514 529.002 312.449 528.662 313.257C528.63 313.327 525.661 320.454 524.42 330.639C523.132 341.19 520.663 362.654 520.663 362.657Z" fill="#08824F"/>
<path d="M611.008 715.386C592.863 715.386 582.885 714.787 569.076 713.96C551.312 712.894 526.988 711.437 470.143 710.553C468.387 710.527 466.984 709.083 467.012 707.323C467.041 705.567 468.587 704.103 470.242 704.189C527.227 705.074 551.634 706.54 569.455 707.609C583.155 708.427 593.05 709.022 611.008 709.022C633.487 709.022 653.653 706.559 673.157 704.18C690.278 702.086 706.447 700.113 723.778 699.728C760.747 698.914 788.374 699.725 788.647 699.728C790.404 699.786 791.785 701.252 791.731 703.005C791.676 704.762 790.194 706.063 788.457 706.092C788.183 706.082 760.712 705.268 723.921 706.092C706.906 706.467 690.886 708.424 673.927 710.495C654.235 712.901 633.875 715.386 611.008 715.386Z" fill="#B31B1F"/>
<path d="M755.143 672.932C753.562 672.932 751.978 672.223 750.597 670.136C746.298 663.642 745 663.107 736.689 664.386C729.171 665.56 726.202 660.231 724.236 656.709C723.581 655.531 722.957 654.421 722.413 653.991C720.949 652.837 717.293 654.224 715.747 655.076L714.204 652.296C714.879 651.92 720.873 648.723 724.386 651.494C725.426 652.318 726.161 653.635 727.014 655.156C728.913 658.551 730.879 662.048 736.202 661.243C745.716 659.773 748.258 660.845 753.25 668.379C754.574 670.384 755.719 670.11 759.248 668.052C761.927 666.48 765.99 664.109 769.019 668.341L766.435 670.193C765.255 668.554 764.186 668.85 760.851 670.797C759.257 671.73 757.202 672.932 755.143 672.932Z" fill="white"/>
<path d="M718.124 523.085C718.124 523.085 642.125 495.604 609.153 509.661C576.181 523.715 549.009 559.948 554.042 562.344C559.076 564.743 586.012 543.852 586.012 543.852C586.012 543.852 558.544 571.609 563.638 574.387C568.732 577.164 595.201 562.344 595.201 562.344C595.201 562.344 576.725 582.096 584.66 583.607C592.595 585.119 609.608 568.844 627.349 568.233C645.094 567.619 667.455 581.641 689.638 585.59C711.818 589.535 718.124 523.085 718.124 523.085Z" fill="#FFCEB0"/>
<path d="M832.818 508.84C832.621 508.84 832.423 508.821 832.223 508.783C832 508.744 809.62 504.513 782.865 499.072C781.143 498.722 780.03 497.042 780.38 495.321C780.727 493.599 782.403 492.486 784.131 492.839C810.842 498.267 833.184 502.489 833.407 502.534C835.134 502.858 836.267 504.522 835.939 506.25C835.653 507.777 834.317 508.84 832.818 508.84Z" fill="#B31B1F"/>
<path fill-rule="evenodd" clip-rule="evenodd" d="M620.41 8.76935C619.579 8.76935 618.676 8.86594 617.697 9.05912C615.312 9.53785 613.767 10.6969 612.839 12.7084C608.702 21.6617 617.424 42.9865 623.656 55.5848C627.507 41.6091 632.122 18.2475 625.601 10.8859C624.345 9.47066 622.636 8.76935 620.41 8.76935ZM623.839 66.0486C623.939 66.0677 624.04 66.0817 624.142 66.0902C624.474 66.2178 624.828 66.2837 625.186 66.2837C625.517 66.2837 625.849 66.2291 626.172 66.1115C630.422 64.5619 667.844 50.5273 672.505 34.3552C673.626 30.4665 672.837 26.6324 670.225 23.2729C665.782 17.5532 660.982 16.8729 657.735 17.3055C648.524 18.5339 639.457 30.4343 632.808 41.7397C635.16 28.8625 636.066 13.992 629.922 7.05598C627.755 4.6077 623.673 1.98304 616.568 3.39825C612.398 4.22975 609.294 6.61503 607.598 10.2896C601.32 23.8866 615.762 53.1689 620.575 62.2436C614.506 63.4151 608.402 63.6795 602.563 63.2827C589.984 62.4277 578.834 58.516 572.177 54.2365L569.798 57.9377C577.164 62.6731 589.052 66.7746 602.265 67.6725C609.194 68.1435 616.543 67.7367 623.839 66.0486ZM659.327 22.9705C659.054 22.9705 658.777 22.9873 658.5 23.0293C648.744 24.3269 636.957 45.0176 630.725 58.1073C643.68 52.6522 664.228 42.2334 666.957 32.7594C667.571 30.6261 667.159 28.7406 665.668 26.8172C663.661 24.2346 661.582 22.9705 659.327 22.9705Z" fill="#FFD310"/>
<path d="M197.27 117.75H310.515C317.784 117.75 324.662 121.045 329.218 126.71L362.458 168.048C367.173 173.91 374.363 177.223 381.883 176.997L594.85 170.596" stroke="#FFB2B1" stroke-width="5" stroke-linejoin="round"/>
<path d="M209.361 118.265C209.361 123.301 205.279 127.384 200.243 127.384C195.207 127.384 191.124 123.301 191.124 118.265C191.124 113.229 195.207 109.147 200.243 109.147C205.279 109.147 209.361 113.229 209.361 118.265Z" fill="#FF383D"/>
<path d="M11.0007 118.366C11.0007 79.3562 42.625 47.7319 81.6348 47.7319C120.645 47.7319 152.266 79.3562 152.266 118.366C152.266 157.376 120.645 189 81.6348 189C42.625 189 11.0007 157.376 11.0007 118.366Z" fill="#FFE1E2"/>
<path d="M81.3303 30.4904C130.103 30.4904 169.64 70.0281 169.64 118.8C169.64 167.573 130.103 207.113 81.3303 207.113V250.724" stroke="#FFD6D7" stroke-width="2.4" stroke-miterlimit="10"/>
<path d="M74.0679 252.928C74.0679 248.916 77.3185 245.665 81.3301 245.665C85.3418 245.665 88.5924 248.916 88.5924 252.928C88.5924 256.939 85.3418 260.19 81.3301 260.19C77.3185 260.19 74.0679 256.939 74.0679 252.928Z" fill="#F2AEB0"/>
<path d="M53.158 116.248V119.997H58.572V122.232H53.158V128H50.5798V113.896H59.6033V116.248H53.158ZM64.3943 116.248V119.772H70.1843V122.017H64.3943V125.648H70.8396V128H61.8162V113.896H70.8396V116.248H64.3943ZM75.072 113.896L77.113 119.116C77.421 119.94 77.7898 120.971 78.2195 122.21C78.6563 123.442 78.9607 124.323 79.1326 124.853C79.3259 124.323 79.6375 123.435 80.0671 122.189C80.504 120.942 80.8764 119.911 81.1843 119.095L83.2039 113.896H85.9539L80.4753 128H77.822L72.2683 113.896H75.072ZM90.3259 116.248V119.772H96.116V122.017H90.3259V125.648H96.7712V128H87.7478V113.896H96.7712V116.248H90.3259ZM99.4998 113.896H105.096C106.815 113.896 108.119 114.279 109.007 115.045C109.902 115.804 110.349 116.889 110.349 118.3C110.349 119.281 110.12 120.119 109.662 120.814C109.211 121.501 108.573 121.999 107.75 122.307L110.435 128H107.556L105.182 122.747H102.078V128H99.4998V113.896ZM105.096 120.502C105.934 120.502 106.568 120.301 106.998 119.9C107.427 119.492 107.642 118.966 107.642 118.321C107.642 117.677 107.424 117.158 106.987 116.764C106.557 116.363 105.927 116.162 105.096 116.162H102.078V120.502H105.096Z" fill="#FF383D"/>
<path d="M650.77 232.046H819.584C828.398 232.046 836.503 236.877 840.695 244.63L871.944 302.419C876.136 310.172 884.241 315.004 893.055 315.004H975.84" stroke="#FFB2B1" stroke-width="5" stroke-linejoin="round"/>
<path d="M979.944 314.905C979.944 319.941 975.862 324.023 970.826 324.023C965.79 324.023 961.708 319.941 961.708 314.905C961.708 309.868 965.79 305.786 970.826 305.786C975.862 305.786 979.944 309.868 979.944 314.905Z" fill="#FF383D"/>
<path opacity="0.15" d="M1005.73 333.366C1005.73 294.356 1037.36 262.732 1076.37 262.732C1115.38 262.732 1147 294.356 1147 333.366C1147 372.376 1115.38 404 1076.37 404C1037.36 404 1005.73 372.376 1005.73 333.366Z" fill="#FF383D"/>
<path d="M1042.72 313.896H1048.32C1050.04 313.896 1051.34 314.279 1052.23 315.045C1053.12 315.804 1053.57 316.889 1053.57 318.3C1053.57 319.281 1053.34 320.119 1052.88 320.814C1052.43 321.501 1051.79 321.999 1050.97 322.307L1053.66 328H1050.78L1048.4 322.747H1045.3V328H1042.72V313.896ZM1048.32 320.502C1049.15 320.502 1049.79 320.301 1050.22 319.9C1050.65 319.492 1050.86 318.966 1050.86 318.321C1050.86 317.677 1050.64 317.158 1050.21 316.764C1049.78 316.363 1049.15 316.162 1048.32 316.162H1045.3V320.502H1048.32ZM1055.93 313.896H1058.51V322.812C1058.51 323.9 1058.82 324.691 1059.43 325.186C1060.05 325.68 1060.83 325.927 1061.79 325.927C1062.8 325.927 1063.6 325.665 1064.19 325.143C1064.79 324.613 1065.09 323.836 1065.09 322.812V313.896H1067.66V322.919C1067.66 324.079 1067.41 325.064 1066.9 325.873C1066.39 326.675 1065.69 327.28 1064.81 327.689C1063.92 328.09 1062.92 328.29 1061.79 328.29C1060.64 328.29 1059.63 328.086 1058.75 327.678C1057.87 327.262 1057.18 326.654 1056.67 325.852C1056.18 325.042 1055.93 324.065 1055.93 322.919V313.896ZM1082.18 313.896V328H1079.76L1073.27 318.343V328H1070.71V313.896H1073.14L1079.63 323.574V313.896H1082.18ZM1096.81 313.896V328H1094.39L1087.9 318.343V328H1085.34V313.896H1087.77L1094.26 323.574V313.896H1096.81ZM1101.59 313.896L1103.26 316.753C1103.67 317.469 1104.03 318.132 1104.35 318.74C1104.66 319.342 1104.86 319.721 1104.93 319.879C1105.01 319.714 1105.21 319.356 1105.51 318.805C1105.82 318.246 1106.2 317.562 1106.65 316.753L1108.32 313.896H1111.2L1106.21 322.35V328H1103.63V322.35L1098.61 313.896H1101.59ZM1061.75 342.896V357H1059.34L1052.85 347.343V357H1050.29V342.896H1052.72L1059.21 352.574V342.896H1061.75ZM1079.01 349.942C1079.01 351.36 1078.68 352.628 1078.04 353.745C1077.4 354.862 1076.5 355.732 1075.37 356.356C1074.23 356.979 1072.96 357.29 1071.55 357.29C1070.14 357.29 1068.87 356.982 1067.74 356.366C1066.61 355.75 1065.73 354.884 1065.1 353.767C1064.46 352.649 1064.14 351.382 1064.14 349.964C1064.14 348.539 1064.46 347.271 1065.1 346.161C1065.73 345.044 1066.61 344.174 1067.74 343.551C1068.87 342.928 1070.15 342.616 1071.57 342.616C1072.98 342.616 1074.25 342.928 1075.38 343.551C1076.51 344.174 1077.4 345.04 1078.04 346.15C1078.68 347.253 1079.01 348.517 1079.01 349.942ZM1076.28 349.942C1076.28 348.983 1076.08 348.131 1075.68 347.386C1075.28 346.641 1074.71 346.061 1073.99 345.646C1073.27 345.223 1072.47 345.012 1071.57 345.012C1070.66 345.012 1069.85 345.223 1069.12 345.646C1068.41 346.061 1067.85 346.641 1067.44 347.386C1067.03 348.131 1066.83 348.99 1066.83 349.964C1066.83 350.916 1067.03 351.769 1067.44 352.521C1067.85 353.265 1068.41 353.845 1069.12 354.261C1069.85 354.676 1070.66 354.884 1071.57 354.884C1072.47 354.884 1073.27 354.676 1073.99 354.261C1074.71 353.845 1075.28 353.265 1075.68 352.521C1076.08 351.769 1076.28 350.909 1076.28 349.942ZM1080.85 346.902C1080.85 346.036 1081.06 345.28 1081.48 344.636C1081.9 343.991 1082.49 343.494 1083.25 343.143C1084.02 342.792 1084.9 342.616 1085.89 342.616C1086.87 342.616 1087.75 342.788 1088.51 343.132C1089.28 343.476 1089.88 343.963 1090.31 344.593C1090.74 345.223 1090.95 345.957 1090.95 346.795H1088.3C1088.28 346.193 1088.04 345.71 1087.58 345.345C1087.12 344.972 1086.52 344.786 1085.76 344.786C1085.08 344.786 1084.52 344.958 1084.11 345.302C1083.7 345.638 1083.5 346.075 1083.5 346.612C1083.5 347.142 1083.68 347.533 1084.03 347.783C1084.4 348.034 1084.88 348.231 1085.48 348.374L1087.79 348.943C1088.85 349.194 1089.7 349.656 1090.35 350.329C1091 350.995 1091.33 351.855 1091.33 352.907C1091.33 353.788 1091.11 354.558 1090.66 355.217C1090.23 355.876 1089.6 356.388 1088.79 356.753C1087.99 357.111 1087.06 357.29 1085.99 357.29C1084.41 357.29 1083.12 356.907 1082.12 356.141C1081.13 355.367 1080.6 354.318 1080.51 352.993H1083.16C1083.19 353.652 1083.47 354.171 1083.99 354.551C1084.51 354.923 1085.19 355.109 1086.03 355.109C1086.84 355.109 1087.48 354.938 1087.93 354.594C1088.39 354.25 1088.62 353.777 1088.62 353.176C1088.62 352.66 1088.46 352.27 1088.14 352.005C1087.82 351.74 1087.39 351.543 1086.87 351.414L1084.51 350.845C1083.35 350.565 1082.45 350.1 1081.81 349.448C1081.17 348.789 1080.85 347.941 1080.85 346.902ZM1096.25 345.248V348.772H1102.04V351.017H1096.25V354.648H1102.69V357H1093.67V342.896H1102.69V345.248H1096.25Z" fill="#FF383D"/>
<path d="M1081.03 245.265C1129.8 245.265 1169.34 284.803 1169.34 333.578C1169.34 382.35 1129.8 421.888 1081.03 421.888V465.502" stroke="#FFD6D7" stroke-width="2.4" stroke-miterlimit="10"/>
<path d="M1073.77 467.704C1073.77 463.692 1077.02 460.442 1081.03 460.442C1085.04 460.442 1088.29 463.692 1088.29 467.704C1088.29 471.716 1085.04 474.966 1081.03 474.966C1077.02 474.966 1073.77 471.716 1073.77 467.704Z" fill="#F2AEB0"/>
<path opacity="0.15" d="M11.0007 604.366C11.0007 565.356 42.625 533.732 81.6348 533.732C120.645 533.732 152.266 565.356 152.266 604.366C152.266 643.376 120.645 675 81.6348 675C42.625 675 11.0007 643.376 11.0007 604.366Z" fill="#FF383D"/>
<g filter="url(#filter0_d)">
<path d="M31.822 600.896C33.197 600.896 34.4216 601.196 35.4958 601.798C36.5772 602.399 37.4187 603.241 38.0203 604.322C38.6218 605.397 38.9226 606.618 38.9226 607.985C38.9226 609.346 38.6254 610.56 38.031 611.627C37.4366 612.687 36.5987 613.514 35.5173 614.108C34.4431 614.703 33.2113 615 31.822 615H26.5798V600.896H31.822ZM31.5964 612.648C32.5203 612.648 33.3295 612.454 34.0242 612.067C34.726 611.674 35.2667 611.126 35.6462 610.424C36.0258 609.722 36.2156 608.909 36.2156 607.985C36.2156 607.047 36.0258 606.224 35.6462 605.515C35.2667 604.799 34.726 604.244 34.0242 603.85C33.3295 603.449 32.5203 603.248 31.5964 603.248H29.158V612.648H31.5964ZM41.9412 600.896L43.6169 603.753C44.0251 604.469 44.3868 605.132 44.7019 605.74C45.017 606.342 45.2104 606.721 45.282 606.879C45.3679 606.714 45.5613 606.356 45.8621 605.805C46.17 605.246 46.5496 604.562 47.0007 603.753L48.6765 600.896H51.5554L46.5603 609.35V615H43.9822V609.35L38.9656 600.896H41.9412ZM59.1394 600.896C60.6218 600.896 61.7856 601.315 62.6306 602.152C63.4828 602.99 63.9089 604.111 63.9089 605.515C63.9089 606.424 63.7156 607.23 63.3289 607.932C62.9421 608.626 62.3835 609.171 61.6531 609.565C60.9298 609.958 60.0776 610.155 59.0964 610.155H55.9275V615H53.3494V600.896H59.1394ZM58.613 607.942C59.4796 607.942 60.1277 607.71 60.5574 607.244C60.9942 606.772 61.2126 606.181 61.2126 605.472C61.2126 604.827 60.9942 604.283 60.5574 603.839C60.1277 603.388 59.5011 603.162 58.6775 603.162H55.9275V607.942H58.613ZM65.6277 604.902C65.6277 604.036 65.8354 603.28 66.2507 602.636C66.6733 601.991 67.2641 601.494 68.0232 601.143C68.7895 600.792 69.6703 600.616 70.6658 600.616C71.6469 600.616 72.5206 600.788 73.2869 601.132C74.0531 601.476 74.6511 601.963 75.0808 602.593C75.5105 603.223 75.7253 603.957 75.7253 604.795H73.072C73.0577 604.193 72.8178 603.71 72.3523 603.345C71.894 602.972 71.2888 602.786 70.5369 602.786C69.8494 602.786 69.2979 602.958 68.8826 603.302C68.4744 603.638 68.2703 604.075 68.2703 604.612C68.2703 605.142 68.4493 605.533 68.8074 605.783C69.1726 606.034 69.656 606.231 70.2576 606.374L72.5671 606.943C73.6199 607.194 74.4721 607.656 75.1238 608.329C75.7755 608.995 76.1013 609.855 76.1013 610.907C76.1013 611.788 75.8793 612.558 75.4353 613.217C74.9985 613.876 74.3754 614.388 73.5662 614.753C72.7641 615.111 71.8295 615.29 70.7625 615.29C69.1798 615.29 67.8907 614.907 66.8953 614.141C65.907 613.367 65.3699 612.318 65.2839 610.993H67.9373C67.9659 611.652 68.2416 612.171 68.7644 612.551C69.2872 612.923 69.9675 613.109 70.8054 613.109C71.6147 613.109 72.2485 612.938 72.7068 612.594C73.1651 612.25 73.3943 611.777 73.3943 611.176C73.3943 610.66 73.2332 610.27 72.9109 610.005C72.5886 609.74 72.1661 609.543 71.6433 609.414L69.28 608.845C68.1199 608.565 67.2211 608.1 66.5837 607.448C65.9464 606.789 65.6277 605.941 65.6277 604.902ZM89.905 600.896V615H87.488L80.9998 605.343V615H78.4431V600.896H80.8708L87.3591 610.574V600.896H89.905ZM107.157 607.942C107.157 609.36 106.835 610.628 106.19 611.745C105.546 612.862 104.654 613.732 103.515 614.356C102.384 614.979 101.113 615.29 99.7019 615.29C98.2911 615.29 97.0199 614.982 95.8884 614.366C94.7641 613.75 93.8832 612.884 93.2458 611.767C92.6085 610.649 92.2898 609.382 92.2898 607.964C92.2898 606.539 92.6085 605.271 93.2458 604.161C93.8832 603.044 94.7641 602.174 95.8884 601.551C97.0199 600.928 98.2983 600.616 99.7234 600.616C101.134 600.616 102.402 600.928 103.526 601.551C104.658 602.174 105.546 603.04 106.19 604.15C106.835 605.253 107.157 606.517 107.157 607.942ZM104.428 607.942C104.428 606.983 104.228 606.131 103.827 605.386C103.426 604.641 102.864 604.061 102.14 603.646C101.424 603.223 100.619 603.012 99.7234 603.012C98.8139 603.012 97.9975 603.223 97.2742 603.646C96.558 604.061 95.9958 604.641 95.5876 605.386C95.1794 606.131 94.9753 606.99 94.9753 607.964C94.9753 608.916 95.1794 609.769 95.5876 610.521C95.9958 611.265 96.558 611.845 97.2742 612.261C97.9975 612.676 98.8139 612.884 99.7234 612.884C100.619 612.884 101.424 612.676 102.14 612.261C102.864 611.845 103.426 611.265 103.827 610.521C104.228 609.769 104.428 608.909 104.428 607.942ZM112.109 603.248V606.772H117.899V609.017H112.109V612.648H118.554V615H109.531V600.896H118.554V603.248H112.109ZM125.161 600.896H127.782L133.013 615H130.285L129.146 611.788H123.754L122.561 615H119.897L125.161 600.896ZM128.394 609.65L127.492 607.169C127.406 606.933 127.17 606.234 126.783 605.074L126.482 604.193C126.425 604.387 126.289 604.791 126.074 605.407C125.859 606.023 125.641 606.61 125.419 607.169L124.495 609.65H128.394Z" fill="#FF383D"/>
</g>
<path d="M81.3325 516.642C130.105 516.642 169.643 556.18 169.643 604.952C169.643 653.727 130.105 693.265 81.3325 693.265V736.876" stroke="#FFD6D7" stroke-width="2.4" stroke-miterlimit="10"/>
<path d="M74.0701 739.08C74.0701 735.068 77.3207 731.818 81.3323 731.818C85.344 731.818 88.5946 735.068 88.5946 739.08C88.5946 743.089 85.344 746.342 81.3323 746.342C77.3207 746.342 74.0701 743.089 74.0701 739.08Z" fill="#F2AEB0"/>
<path d="M186.74 616.834H365.033C374.666 616.834 383.365 611.075 387.127 602.207L443.54 469.233C447.302 460.365 456.002 454.606 465.634 454.606H672.809" stroke="#FFB2B1" stroke-width="5" stroke-linejoin="round"/>
<path d="M201.987 617.241C201.987 622.277 197.904 626.359 192.868 626.359C187.832 626.359 183.75 622.277 183.75 617.241C183.75 612.205 187.832 608.122 192.868 608.122C197.904 608.122 201.987 612.205 201.987 617.241Z" fill="#FF383D"/>
<path opacity="0.15" d="M159.268 362.366C159.268 323.356 127.644 291.732 88.6338 291.732C49.624 291.732 17.9998 323.356 17.9998 362.366C17.9998 401.376 49.624 433 88.6338 433C127.644 433 159.268 401.376 159.268 362.366Z" fill="#FF383D"/>
<path d="M58.2026 348.227H53.938V360H51.3599V348.227H47.0522V345.896H58.2026V348.227ZM60.1147 345.896H62.6929V351.75L68.9448 351.771V345.896H71.5337V360H68.9448V353.995H62.6929V360H60.1147V345.896ZM74.5737 345.896H80.1704C81.8892 345.896 83.1925 346.279 84.0806 347.045C84.9757 347.804 85.4233 348.889 85.4233 350.3C85.4233 351.281 85.1942 352.119 84.7358 352.813C84.2847 353.501 83.6473 353.999 82.8237 354.307L85.5093 360H82.6304L80.2563 354.747H77.1519V360H74.5737V345.896ZM80.1704 352.502C81.0083 352.502 81.6421 352.301 82.0718 351.9C82.5015 351.492 82.7163 350.966 82.7163 350.321C82.7163 349.677 82.4979 349.158 82.061 348.764C81.6313 348.363 81.0011 348.162 80.1704 348.162H77.1519V352.502H80.1704ZM101.87 352.942C101.87 354.36 101.547 355.628 100.903 356.745C100.258 357.862 99.3667 358.732 98.228 359.355C97.0965 359.979 95.8254 360.29 94.4146 360.29C93.0037 360.29 91.7326 359.982 90.6011 359.366C89.4767 358.75 88.5959 357.884 87.9585 356.767C87.3211 355.649 87.0024 354.382 87.0024 352.964C87.0024 351.539 87.3211 350.271 87.9585 349.161C88.5959 348.044 89.4767 347.174 90.6011 346.551C91.7326 345.928 93.0109 345.616 94.436 345.616C95.8468 345.616 97.1144 345.928 98.2388 346.551C99.3703 347.174 100.258 348.04 100.903 349.15C101.547 350.253 101.87 351.517 101.87 352.942ZM99.1411 352.942C99.1411 351.983 98.9406 351.131 98.5396 350.386C98.1385 349.641 97.5763 349.061 96.853 348.646C96.1369 348.223 95.3312 348.012 94.436 348.012C93.5265 348.012 92.7101 348.223 91.9868 348.646C91.2707 349.061 90.7085 349.641 90.3003 350.386C89.8921 351.131 89.688 351.99 89.688 352.964C89.688 353.916 89.8921 354.769 90.3003 355.521C90.7085 356.265 91.2707 356.845 91.9868 357.261C92.7101 357.676 93.5265 357.884 94.436 357.884C95.3312 357.884 96.1369 357.676 96.853 357.261C97.5763 356.845 98.1385 356.265 98.5396 355.521C98.9406 354.769 99.1411 353.909 99.1411 352.942ZM107.456 345.896H110.077L115.308 360H112.58L111.441 356.788H106.048L104.856 360H102.192L107.456 345.896ZM110.689 354.65L109.787 352.169C109.701 351.933 109.464 351.234 109.078 350.074L108.777 349.193C108.72 349.387 108.583 349.791 108.369 350.407C108.154 351.023 107.935 351.61 107.713 352.169L106.79 354.65H110.689ZM125.707 348.227H121.442V360H118.864V348.227H114.556V345.896H125.707V348.227ZM73.6821 374.896C75.1646 374.896 76.3283 375.314 77.1733 376.152C78.0256 376.99 78.4517 378.111 78.4517 379.515C78.4517 380.424 78.2583 381.23 77.8716 381.932C77.4849 382.626 76.9263 383.171 76.1958 383.564C75.4725 383.958 74.6203 384.155 73.6392 384.155H70.4702V389H67.8921V374.896H73.6821ZM73.1558 381.942C74.0223 381.942 74.6704 381.71 75.1001 381.244C75.5369 380.771 75.7554 380.181 75.7554 379.472C75.7554 378.827 75.5369 378.283 75.1001 377.839C74.6704 377.388 74.0438 377.162 73.2202 377.162H70.4702V381.942H73.1558ZM83.3716 374.896H85.9927L91.2241 389H88.4956L87.3569 385.788H81.9644L80.772 389H78.1079L83.3716 374.896ZM86.605 383.65L85.7026 381.169C85.6167 380.933 85.3804 380.234 84.9937 379.074L84.6929 378.193C84.6356 378.387 84.4995 378.791 84.2847 379.407C84.0698 380.023 83.8514 380.61 83.6294 381.169L82.7056 383.65H86.605ZM93.0288 389V374.896H95.6069V389H93.0288ZM110.098 374.896V389H107.681L101.193 379.343V389H98.6362V374.896H101.064L107.552 384.574V374.896H110.098Z" fill="#FF383D"/>
<path d="M89.9726 274.026C41.2003 274.026 1.6626 313.563 1.6626 362.338C1.6626 411.111 41.2003 450.648 89.9726 450.648V494.262" stroke="#FFD6D7" stroke-width="2.4" stroke-miterlimit="10"/>
<path d="M97.4327 496.545C97.4327 492.533 94.1821 489.283 90.1705 489.283C86.1615 489.283 82.9082 492.533 82.9082 496.545C82.9082 500.556 86.1615 503.807 90.1705 503.807C94.1821 503.807 97.4327 500.556 97.4327 496.545Z" fill="#F2AEB0"/>
<path d="M190.511 377.07H393.822C401.243 377.07 408.246 373.638 412.792 367.772L455.528 312.629C460.074 306.763 467.077 303.331 474.498 303.331H631.721" stroke="#FFB2B1" stroke-width="5" stroke-linejoin="round"/>
<path d="M200.761 377.586C200.761 382.622 196.678 386.704 191.642 386.704C186.606 386.704 182.524 382.622 182.524 377.586C182.524 372.55 186.606 368.468 191.642 368.468C196.678 368.468 200.761 372.55 200.761 377.586Z" fill="#FF383D"/>
<path opacity="0.13" d="M1160 574.366C1160 535.356 1128.38 503.732 1089.37 503.732C1050.36 503.732 1018.74 535.356 1018.74 574.366C1018.74 613.376 1050.36 645 1089.37 645C1128.38 645 1160 613.376 1160 574.366Z" fill="#FF383D"/>
<path d="M1045.72 557.902C1045.72 557.036 1045.92 556.28 1046.34 555.636C1046.76 554.991 1047.35 554.493 1048.11 554.143C1048.88 553.792 1049.76 553.616 1050.75 553.616C1051.74 553.616 1052.61 553.788 1053.38 554.132C1054.14 554.476 1054.74 554.963 1055.17 555.593C1055.6 556.223 1055.81 556.957 1055.81 557.795H1053.16C1053.15 557.193 1052.91 556.71 1052.44 556.345C1051.98 555.972 1051.38 555.786 1050.63 555.786C1049.94 555.786 1049.39 555.958 1048.97 556.302C1048.56 556.638 1048.36 557.075 1048.36 557.612C1048.36 558.142 1048.54 558.532 1048.9 558.783C1049.26 559.034 1049.74 559.231 1050.35 559.374L1052.66 559.943C1053.71 560.194 1054.56 560.656 1055.21 561.329C1055.86 561.995 1056.19 562.854 1056.19 563.907C1056.19 564.788 1055.97 565.558 1055.52 566.217C1055.09 566.876 1054.46 567.388 1053.65 567.753C1052.85 568.111 1051.92 568.29 1050.85 568.29C1049.27 568.29 1047.98 567.907 1046.98 567.141C1046 566.367 1045.46 565.318 1045.37 563.993H1048.03C1048.05 564.652 1048.33 565.171 1048.85 565.551C1049.38 565.923 1050.06 566.109 1050.89 566.109C1051.7 566.109 1052.34 565.937 1052.8 565.594C1053.25 565.25 1053.48 564.777 1053.48 564.176C1053.48 563.66 1053.32 563.27 1053 563.005C1052.68 562.74 1052.25 562.543 1051.73 562.414L1049.37 561.845C1048.21 561.565 1047.31 561.1 1046.67 560.448C1046.03 559.789 1045.72 558.941 1045.72 557.902ZM1058.53 553.895H1061.11V559.75L1067.36 559.771V553.895H1069.95V568H1067.36V561.995H1061.11V568H1058.53V553.895ZM1076.87 553.895H1079.49L1084.72 568H1081.99L1080.85 564.788H1075.46L1074.27 568H1071.6L1076.87 553.895ZM1080.1 562.65L1079.2 560.169C1079.11 559.933 1078.88 559.234 1078.49 558.074L1078.19 557.193C1078.13 557.387 1078 557.791 1077.78 558.407C1077.57 559.023 1077.35 559.61 1077.13 560.169L1076.2 562.65H1080.1ZM1093.22 559.965L1098.08 568H1094.98L1091.46 562.145L1089.13 565.035V568.043H1086.53V553.895H1089.13V561.071L1094.89 553.895H1098.11L1093.22 559.965ZM1099.95 568V553.895H1102.53V568H1099.95ZM1117.02 553.895V568H1114.61L1108.12 558.343V568H1105.56V553.895H1107.99L1114.48 563.574V553.895H1117.02ZM1133.62 560.341V561.684C1133.62 562.987 1133.32 564.14 1132.72 565.143C1132.12 566.138 1131.28 566.911 1130.2 567.463C1129.14 568.014 1127.92 568.29 1126.55 568.29C1125.13 568.29 1123.88 567.989 1122.8 567.388C1121.73 566.786 1120.89 565.941 1120.3 564.852C1119.7 563.757 1119.41 562.489 1119.41 561.05C1119.41 559.582 1119.71 558.289 1120.32 557.172C1120.93 556.047 1121.78 555.174 1122.88 554.551C1123.98 553.928 1125.24 553.616 1126.67 553.616C1127.82 553.616 1128.85 553.817 1129.78 554.218C1130.72 554.619 1131.5 555.185 1132.12 555.915C1132.73 556.638 1133.14 557.469 1133.33 558.407H1130.58C1130.3 557.648 1129.81 557.057 1129.1 556.635C1128.39 556.205 1127.55 555.99 1126.59 555.99C1125.2 555.99 1124.09 556.449 1123.29 557.365C1122.48 558.282 1122.07 559.496 1122.07 561.007C1122.07 562.518 1122.48 563.71 1123.3 564.584C1124.12 565.45 1125.23 565.884 1126.62 565.884C1127.78 565.884 1128.74 565.594 1129.49 565.014C1130.26 564.426 1130.72 563.603 1130.87 562.543H1126.4V560.341H1133.62ZM1062.97 597.29C1061.56 597.29 1060.3 596.986 1059.2 596.377C1058.1 595.768 1057.25 594.905 1056.63 593.788C1056.01 592.671 1055.71 591.389 1055.71 589.942C1055.71 588.503 1056.01 587.228 1056.62 586.118C1057.23 585.001 1058.08 584.138 1059.18 583.529C1060.28 582.921 1061.54 582.616 1062.97 582.616C1064.14 582.616 1065.22 582.817 1066.19 583.218C1067.16 583.619 1067.97 584.199 1068.61 584.958C1069.25 585.71 1069.65 586.584 1069.83 587.579H1066.96C1066.74 586.82 1066.27 586.2 1065.55 585.721C1064.82 585.234 1063.96 584.99 1062.95 584.99C1062.04 584.99 1061.24 585.194 1060.54 585.602C1059.85 586.011 1059.32 586.594 1058.95 587.353C1058.58 588.105 1058.39 588.976 1058.39 589.964C1058.39 590.959 1058.58 591.833 1058.96 592.585C1059.34 593.33 1059.87 593.899 1060.56 594.293C1061.26 594.687 1062.05 594.884 1062.95 594.884C1063.93 594.884 1064.78 594.647 1065.51 594.175C1066.25 593.695 1066.74 593.061 1066.96 592.273H1069.83C1069.67 593.254 1069.27 594.128 1068.64 594.894C1068.01 595.654 1067.21 596.244 1066.23 596.667C1065.26 597.082 1064.17 597.29 1062.97 597.29ZM1072.17 582.895H1074.75V588.75L1081 588.771V582.895H1083.59V597H1081V590.995H1074.75V597H1072.17V582.895ZM1086.63 597V582.895H1089.21V597H1086.63ZM1100.67 594.669V597H1092.24V582.895H1094.84V594.669H1100.67ZM1111.18 594.669V597H1102.75V582.895H1105.35V594.669H1111.18ZM1112.85 586.902C1112.85 586.036 1113.06 585.28 1113.48 584.636C1113.9 583.991 1114.49 583.493 1115.25 583.143C1116.02 582.792 1116.9 582.616 1117.89 582.616C1118.87 582.616 1119.75 582.788 1120.51 583.132C1121.28 583.476 1121.88 583.963 1122.31 584.593C1122.74 585.223 1122.95 585.957 1122.95 586.795H1120.3C1120.28 586.193 1120.05 585.71 1119.58 585.345C1119.12 584.972 1118.52 584.786 1117.76 584.786C1117.08 584.786 1116.53 584.958 1116.11 585.302C1115.7 585.638 1115.5 586.075 1115.5 586.612C1115.5 587.142 1115.68 587.532 1116.03 587.783C1116.4 588.034 1116.88 588.231 1117.48 588.374L1119.79 588.943C1120.85 589.194 1121.7 589.656 1122.35 590.329C1123 590.995 1123.33 591.854 1123.33 592.907C1123.33 593.788 1123.11 594.558 1122.66 595.217C1122.23 595.876 1121.6 596.388 1120.79 596.753C1119.99 597.111 1119.06 597.29 1117.99 597.29C1116.41 597.29 1115.12 596.907 1114.12 596.141C1113.13 595.367 1112.6 594.318 1112.51 592.993H1115.16C1115.19 593.652 1115.47 594.171 1115.99 594.551C1116.51 594.923 1117.19 595.109 1118.03 595.109C1118.84 595.109 1119.48 594.937 1119.93 594.594C1120.39 594.25 1120.62 593.777 1120.62 593.176C1120.62 592.66 1120.46 592.27 1120.14 592.005C1119.82 591.74 1119.39 591.543 1118.87 591.414L1116.51 590.845C1115.35 590.565 1114.45 590.1 1113.81 589.448C1113.17 588.789 1112.85 587.941 1112.85 586.902Z" fill="#FA5652"/>
<path d="M1089.87 487.801C1041.1 487.801 1001.56 527.339 1001.56 576.111C1001.56 624.886 1041.1 664.424 1089.87 664.424V708.035" stroke="#FFD6D7" stroke-width="2.4" stroke-miterlimit="10"/>
<path d="M1097.13 710.239C1097.13 706.227 1093.88 702.976 1089.86 702.976C1085.85 702.976 1082.6 706.227 1082.6 710.239C1082.6 714.248 1085.85 717.501 1089.86 717.501C1093.88 717.501 1097.13 714.248 1097.13 710.239Z" fill="#F2AEB0"/>
<path d="M725.738 628.401H816.846C824.124 628.401 831.009 625.098 835.565 619.421L861.096 587.605C865.651 581.929 872.536 578.626 879.814 578.626H973.995" stroke="#FFA6A6" stroke-width="5" stroke-linejoin="round"/>
<path d="M979.943 577.913C979.943 582.949 975.861 587.031 970.825 587.031C965.789 587.031 961.706 582.949 961.706 577.913C961.706 572.876 965.789 568.794 970.825 568.794C975.861 568.794 979.943 572.876 979.943 577.913Z" fill="#FF383D"/>
<path opacity="0.15" d="M1160 88.366C1160 49.3562 1128.38 17.7319 1089.37 17.7319C1050.36 17.7319 1018.74 49.3562 1018.74 88.366C1018.74 127.376 1050.36 159 1089.37 159C1128.38 159 1160 127.376 1160 88.366Z" fill="#FF383D"/>
<path d="M1036.58 84.8956H1039.16V90.7501L1045.41 90.7715V84.8956H1048V99.0001H1045.41V92.9952H1039.16V99.0001H1036.58V84.8956ZM1053.62 87.2481V90.7715H1059.41V93.0167H1053.62V96.6475H1060.06V99.0001H1051.04V84.8956H1060.06V87.2481H1053.62ZM1066.67 84.8956H1069.29L1074.52 99.0001H1071.79L1070.65 95.7881H1065.26L1064.07 99.0001H1061.41L1066.67 84.8956ZM1069.9 93.6505L1069 91.169C1068.91 90.9327 1068.68 90.2344 1068.29 89.0743L1067.99 88.1934C1067.93 88.3868 1067.8 88.7914 1067.58 89.4073C1067.37 90.0232 1067.15 90.6104 1066.93 91.169L1066 93.6505H1069.9ZM1081.57 84.8956C1082.94 84.8956 1084.17 85.1964 1085.24 85.7979C1086.32 86.3995 1087.17 87.2409 1087.77 88.3223C1088.37 89.3965 1088.67 90.6176 1088.67 91.9854C1088.67 93.3461 1088.37 94.56 1087.78 95.627C1087.18 96.6869 1086.35 97.5141 1085.26 98.1085C1084.19 98.7029 1082.96 99.0001 1081.57 99.0001H1076.33V84.8956H1081.57ZM1081.34 96.6475C1082.27 96.6475 1083.08 96.4542 1083.77 96.0674C1084.47 95.6736 1085.01 95.1257 1085.39 94.4239C1085.77 93.7221 1085.96 92.9092 1085.96 91.9854C1085.96 91.0473 1085.77 90.2237 1085.39 89.5147C1085.01 88.7986 1084.47 88.2436 1083.77 87.8497C1083.08 87.4486 1082.27 87.2481 1081.34 87.2481H1078.9V96.6475H1081.34ZM1094.26 84.8956H1096.88L1102.11 99.0001H1099.38L1098.24 95.7881H1092.85L1091.66 99.0001H1088.99L1094.26 84.8956ZM1097.49 93.6505L1096.59 91.169C1096.5 90.9327 1096.26 90.2344 1095.88 89.0743L1095.58 88.1934C1095.52 88.3868 1095.38 88.7914 1095.17 89.4073C1094.95 90.0232 1094.73 90.6104 1094.51 91.169L1093.59 93.6505H1097.49ZM1109.72 99.2901C1108.31 99.2901 1107.06 98.9857 1105.95 98.377C1104.86 97.7683 1104 96.9053 1103.39 95.7881C1102.77 94.671 1102.46 93.3891 1102.46 91.9424C1102.46 90.503 1102.77 89.2283 1103.38 88.1182C1103.98 87.001 1104.84 86.1381 1105.93 85.5294C1107.03 84.9206 1108.3 84.6163 1109.72 84.6163C1110.9 84.6163 1111.97 84.8168 1112.95 85.2178C1113.92 85.6189 1114.73 86.199 1115.36 86.9581C1116 87.71 1116.41 88.5837 1116.59 89.5792H1113.72C1113.5 88.82 1113.03 88.2006 1112.3 87.7208C1111.58 87.2338 1110.71 86.9903 1109.7 86.9903C1108.79 86.9903 1107.99 87.1944 1107.3 87.6026C1106.61 88.0108 1106.08 88.5945 1105.71 89.3536C1105.33 90.1055 1105.15 90.9756 1105.15 91.9639C1105.15 92.9594 1105.34 93.8331 1105.72 94.585C1106.1 95.3298 1106.63 95.8991 1107.32 96.293C1108.01 96.6869 1108.81 96.8839 1109.7 96.8839C1110.68 96.8839 1111.54 96.6475 1112.27 96.1749C1113.01 95.695 1113.49 95.0613 1113.72 94.2735H1116.59C1116.42 95.2546 1116.03 96.1283 1115.4 96.8946C1114.77 97.6537 1113.96 98.2445 1112.99 98.6671C1112.02 99.0824 1110.93 99.2901 1109.72 99.2901ZM1118.93 84.8956H1121.51V90.7501L1127.76 90.7715V84.8956H1130.35V99.0001H1127.76V92.9952H1121.51V99.0001H1118.93V84.8956ZM1135.97 87.2481V90.7715H1141.76V93.0167H1135.97V96.6475H1142.41V99.0001H1133.39V84.8956H1142.41V87.2481H1135.97Z" fill="#FF383D"/>
<path d="M1089.87 1.64969C1041.1 1.64969 1001.56 41.1874 1001.56 89.9597C1001.56 138.732 1041.1 178.272 1089.87 178.272V221.883" stroke="#FFD6D7" stroke-width="2.4" stroke-miterlimit="10"/>
<path d="M1097.13 224.087C1097.13 220.075 1093.88 216.825 1089.87 216.825C1085.86 216.825 1082.61 220.075 1082.61 224.087C1082.61 228.099 1085.86 231.349 1089.87 231.349C1093.88 231.349 1097.13 228.099 1097.13 224.087Z" fill="#F2AEB0"/>
<path d="M975.839 96.8593H849.559C843.442 96.8593 837.555 99.1953 833.102 103.39L804.567 130.271C800.114 134.466 794.228 136.802 788.11 136.802H674.12" stroke="#FFB2B1" stroke-width="5" stroke-linejoin="round"/>
<path d="M979.941 96.1456C979.941 101.182 975.859 105.264 970.822 105.264C965.786 105.264 961.704 101.182 961.704 96.1456C961.704 91.1096 965.786 87.0273 970.822 87.0273C975.859 87.0273 979.941 91.1096 979.941 96.1456Z" fill="#FF383D"/>
<defs>
<filter id="filter0_d" x="26.5798" y="600.616" width="106.434" height="14.6738" filterUnits="userSpaceOnUse" color-interpolation-filters="sRGB">
<feFlood flood-opacity="0" result="BackgroundImageFix"/>
<feColorMatrix in="SourceAlpha" type="matrix" values="0 0 0 0 0 0 0 0 0 0 0 0 0 0 0 0 0 0 127 0" result="hardAlpha"/>
<feOffset/>
<feColorMatrix type="matrix" values="0 0 0 0 0 0 0 0 0 0 0 0 0 0 0 0 0 0 0.1 0"/>
<feBlend mode="normal" in2="BackgroundImageFix" result="effect1_dropShadow"/>
<feBlend mode="normal" in="SourceGraphic" in2="effect1_dropShadow" result="shape"/>
</filter>
</defs>
</svg>
